<?xml version="1.0" encoding="UTF-8"?>
<svg width="282px" height="254px" viewBox="0 0 282 254" version="1.1" xmlns="http://www.w3.org/2000/svg" xmlns:xlink="http://www.w3.org/1999/xlink">
    <title>Onboarding illustration 2</title>
    <defs>
        <linearGradient x1="3.35481092%" y1="29.7793209%" x2="100%" y2="70.0003542%" id="linearGradient-1">
            <stop stop-color="#4173CC" offset="0%"></stop>
            <stop stop-color="#1DA1F3" offset="100%"></stop>
        </linearGradient>
    </defs>
    <g id="Page-1" stroke="none" stroke-width="1" fill="none" fill-rule="evenodd">
        <g id="Sign-up" transform="translate(-66.000000, -176.000000)">
            <g id="Group" transform="translate(13.000000, 157.000000)">
                <path d="M335,131.581378 C334.988419,151.037959 326.512543,169.512203 311.80861,182.129934 C297.104694,194.747656 277.649751,200.241392 258.576698,197.161697 L154.039566,197.161697 C150.001935,197.719773 145.931217,198 141.85575,198 C102.141431,198 68.5067149,171.754651 57.1302306,135.545648 C54.3844169,126.797124 52.9913882,117.675123 53,108.49984 C53,59.0691521 92.7832761,19 141.85575,19 C181.378078,19 214.86758,44.9847051 226.408975,80.9333947 C238.313821,70.730606 253.440992,65.1388779 269.072016,65.1630757 C305.478239,65.1630757 335,94.8988371 335,131.581378 Z" id="Path" fill="url(#linearGradient-1)"></path>
                <path d="M115.357477,236.499662 C112.833734,236.222752 110.197167,235.926522 107.807034,236.650997 C105.416902,237.375471 103.436507,239.490937 104.146124,241.513025 C105.731628,246.020866 115.036813,242.881477 119.327175,245.962909 C120.859234,247.06411 121.456026,248.796408 122.652575,250.148761 C124.588434,252.344723 127.916804,253.368647 131.129381,253.932128 C150.428586,257.316228 172.429674,248.606436 189.344687,256.994239 C194.822691,259.711824 199.14274,264.036132 205.149253,265.848928 C213.106463,268.250964 221.820796,265.684713 230.054132,264.039351 C240.322277,262.004494 250.789024,261.409305 261.197111,262.268414 C268.896008,262.912392 279.136462,263.128124 281.600813,257.065078 C283.186326,253.165795 279.831233,248.825388 275.377566,246.980393 C270.9239,245.135398 265.710149,245.193355 260.736897,245.370449 C251.137763,245.743956 241.535669,246.49741 231.936545,246.130343 C213.373677,245.415528 195.838128,237.436649 177.762194,237.172618 C156.711215,236.895708 136.506435,238.81154 115.357477,236.499662 Z" id="Path" fill="#9DCCFA" opacity="0.199283853" transform="translate(193.000000, 251.513390) rotate(-3.000000) translate(-193.000000, -251.513390) "></path>
                <rect id="Rectangle" fill="#CF9CAC" x="229" y="110" width="9" height="9"></rect>
                <path d="M218.598826,214.977561 C217.831947,218.709268 216.695161,221.609757 214.590002,223.319023 C212.484844,225.028292 209.528599,229.611707 209.528599,229.611707 C209.477474,235.708293 207.823421,237.560976 207.823421,237.560976 L206.118242,238 L201.907925,238 C201.907925,238 201.156082,235.951219 201.005714,234.73366 C200.954589,234.326828 201.252318,233.644878 201.667335,232.913171 C203.172345,230.231065 204.108121,227.28194 204.419078,224.240976 L204.614558,222.440975 C204.259688,211.269268 208.824875,207.642927 210.740569,206.609756 C211.277671,206.31813 211.633851,205.788875 211.693905,205.193171 L211.693905,205.193171 L212.033738,202 L223.359492,202.541463 C223.359492,202.541463 223.118903,203.513171 223.548957,205.760976 C223.63617,206.226341 223.753457,206.74439 223.909841,207.320975 C224.812051,210.683902 218.646943,214.731707 218.598826,214.977561 Z" id="Path" fill="#CF9CAC"></path>
                <path d="M237.79843,207.167545 C237.407871,208.813156 236.868626,210.421824 236.187012,211.974708 C235.593899,213.363042 235.266028,214.845357 235.219556,216.348606 C235.219556,216.398711 235.219556,216.448817 235.219556,216.498922 C235.072389,220.954199 234.123781,225.349665 232.416959,229.485039 C230.745075,233.564201 228.528996,238.872415 227.863871,239.98947 C226.757343,241.855155 227.410376,245 227.410376,245 L221.000982,244.557895 L221.112844,234.044622 C220.444695,226.537667 222.90566,219.602504 224.238935,216.469448 C224.777657,215.216384 225.084719,213.880282 225.145925,212.522919 L225.448255,205.549439 L225.541977,203.486279 C225.541977,203.486279 236.873301,201.91533 237.828664,204.420596 C238.09169,205.083754 238.028202,206.071123 237.79843,207.167545 Z" id="Path" fill="#CF9CAC"></path>
                <path d="M224,206 L212,205.396109 L212.343639,202 L223.808414,202.575875 C223.808414,202.575875 223.556006,203.606226 224,206 Z" id="Path" fill="#000000" opacity="0.100000001"></path>
                <path d="M237.8078,207 L226,205.446945 L226.089584,203.466729 C226.089584,203.466729 236.920625,201.958936 237.833808,204.363484 C238.088112,204.999982 238.027426,205.947657 237.8078,207 Z" id="Path" fill="#000000" opacity="0.100000001"></path>
                <path d="M244.15371,185.560257 L239.37036,207 L225.213638,205.055554 L225.213638,197.675642 L223.98924,205.258973 L207,204.4094 L207.878754,187.806839 C208.789168,184.493728 209.426053,181.108517 209.78272,177.686752 C210.113718,173.93547 211.85365,164.682906 212.694325,160.336325 C212.987242,158.903419 213.151276,158 213.151276,158 C213.151276,158 242.249743,164.180342 244.15371,166.423932 C244.478849,166.806838 244.692679,167.620513 244.824492,168.700427 C245.463052,173.941453 244.15371,185.560257 244.15371,185.560257 Z" id="Path" fill="#FFFFFF"></path>
                <path d="M210,187 C210,187 221.256426,180.888135 224,182.17908 L210,187 Z" id="Path" fill="#000000" opacity="0.0500000007"></path>
                <path d="M216,167 C216,167 225.701493,174.086818 226,176 L216,167 Z" id="Path" fill="#000000" opacity="0.0500000007"></path>
                <path d="M214,192.024691 C214,192.024691 220.822581,191.62963 223,194 L214,192.024691 Z" id="Path" fill="#000000" opacity="0.0500000007"></path>
                <path d="M225.950565,184 C225.950565,184 228.984224,194.865962 227.669729,197.838053 C226.355234,200.810142 225,197.142584 225,197.142584 L225.950565,184 Z" id="Path" fill="#000000" opacity="0.0500000007"></path>
                <path d="M221.820745,241 C221.820745,241 218.463825,241.488947 219.074174,249.294538 C219.684524,257.100128 220.600047,258.470352 221.820745,258.56697 C223.041444,258.663588 228.992347,260.080658 228.687173,257.199674 C228.381998,254.318691 228.076824,247.930169 228.482706,246.952275 C228.888588,245.97438 229.59049,243.400819 228.05241,242.76548 L227.71977,244.270384 C227.71977,244.270384 224.463557,241.389401 222.531802,243.488654 C222.448836,242.976897 222.314965,242.473942 222.132024,241.986678 C221.939763,241.529937 221.518623,241.292783 221.820745,241 Z" id="Path" fill="#363636"></path>
                <path d="M282,143.879928 C282,143.879928 281.241843,144.296267 280.128673,144.815951 C278.410785,145.619102 275.850497,146.676188 273.955104,146.832685 C270.832215,147.092527 269.854432,147.387804 266.283267,144.877959 C263.542467,142.952762 258.954409,140.268705 256.956723,139.123035 L256.087248,138.618114 L256,138.567917 L256,138.532484 L257.657718,134.062009 L263.524416,131 L264.98056,132.225394 L269.3159,135.87205 C269.3159,135.87205 269.992826,136.940948 271.084934,136.867129 C272.177042,136.79331 278.004629,137.271657 278.004629,137.271657 L279.105763,137.448822 L281.425365,137.826775 L282,143.879928 Z" id="Path" fill="#CF9CAC"></path>
                <path d="M282,143.109551 C282,143.109551 281.255166,143.505618 280.161561,144 C279.005887,143.438202 277.569421,142.384832 278.122135,140.651685 C278.621647,139.092697 278.757609,137.876405 279.168449,137 L281.447286,137.359551 L282,143.109551 Z" id="Path" fill="#000000" opacity="0.100000001"></path>
                <path d="M281.961541,135.196239 C281.961541,135.196239 288.458136,133.310382 287.974252,141.230981 C287.490367,149.151581 282.484255,144.815619 282.484255,144.815619 C282.484255,144.815619 278.227866,143.684105 279.123948,140.702942 C280.02003,137.721779 279.760166,135.914373 281.961541,135.196239 Z" id="Path" fill="#CF9CAC"></path>
                <path d="M214,110.106535 L207.377348,112.955116 L207.275057,113 L207.201991,112.964094 L206.789902,112.751645 C205.077248,111.877923 199.191096,108.888704 195.488139,107.114324 C191.104212,105.019779 191.785182,102.925233 191.785182,102.925233 L191.153896,80.983364 L190.031611,77.0426261 C190.031611,77.0426261 189.239582,63.6854049 195.584585,60.337123 C201.929588,56.9888412 197.826233,79.6847464 197.826233,79.6847464 L198.317233,84.4004679 C198.634346,87.417188 199.216352,90.3985157 200.05619,93.3082721 C200.330446,94.2648944 200.502908,95.2490605 200.570571,96.2436293 C200.766386,99.4333246 202.227696,99.2208787 202.227696,99.2208787 C204.535816,99.5919466 206.764257,100.36729 208.815276,101.512909 C209.576972,101.924621 210.305963,102.396842 210.995548,102.925233 L214,110.106535 Z" id="Path" fill="#CF9CAC"></path>
                <path d="M237.890209,121 L232,120.407934 C232,120.407934 233.735997,117.897573 234.500446,115.455299 C234.608569,115.120442 234.69503,114.779338 234.759322,114.433985 C234.935968,113.465956 234.890284,112.568976 234.436488,111.920663 C232.712673,109.454707 244.691055,106 244.691055,106 C244.545485,107.364783 244.501717,108.738016 244.560094,110.10894 C244.594305,111.062905 244.696066,112.013446 244.864655,112.953819 C245.227082,114.869153 245.948893,116.671996 247.325508,117.595619 C251.086836,120.111901 237.890209,121 237.890209,121 Z" id="Path" fill="#CF9CAC"></path>
                <path d="M237.888705,121 L232,120.411332 C232,120.411332 233.735554,117.915379 234.499807,115.487123 C235.178805,116.420162 235.413257,116.399559 236.366289,116.584989 C236.366289,116.584989 242.309802,117.435615 244.86746,113 C245.229795,114.904341 245.951421,116.696836 247.327685,117.615158 C251.081963,120.116998 237.888705,121 237.888705,121 Z" id="Path" fill="#000000" opacity="0.100000001"></path>
                <path d="M236.198266,117.146252 C236.198266,117.146252 242.036735,118.004592 244.504695,113.498304 C244.504695,113.498304 248.626835,116.861118 251.091836,117.149191 C253.556838,117.437265 265,131.746863 265,131.746863 C265,131.746863 255.826532,134.686385 256.418368,139.389623 L252.077246,134.392433 C252.077246,134.392433 249.908164,134.292489 248.034999,140.271478 C248.034999,140.271478 245.765305,143.698965 246.061223,154.575197 C246.357141,165.451433 245.371735,168 245.371735,168 C245.371735,168 216.567041,165.551379 214.004388,161.533048 C211.441735,157.514721 211.045204,159.475383 211.045204,159.475383 C211.045204,159.475383 210.648674,151.832625 213.311939,145.659623 C215.975204,139.486626 215.383367,121.752485 215.383367,121.752485 C215.383367,121.752485 215.679286,113.03092 207,113.815772 C207,113.815772 210.648674,105.38816 208.973776,102.154685 C207.298878,98.9212096 213.965918,103.500986 217.522857,103.54214 C219.706033,103.558995 221.85771,104.061199 223.82,105.011901 C224.888265,105.532197 225.873673,106.18771 226.43296,106.969623 C228.107858,109.321242 230.871735,108.245376 230.871735,108.245376 C231.568367,110.397287 232.42902,112.493353 233.446225,114.515379 C233.561632,114.729964 233.677041,114.94161 233.795408,115.144437 C233.967041,115.438389 234.144593,115.732341 234.322142,115.973383 C235.032347,116.981638 235.233571,116.955183 236.198266,117.146252 Z" id="Path" fill="#2DD8CF"></path>
                <path d="M243.865603,110.357167 C243.554898,110.831123 243.209014,111.277295 242.831337,111.691314 C240.911773,113.807807 238.277647,115.001032 235.527192,115 C235.174959,115.000198 234.822941,114.981339 234.472474,114.943493 C234.64193,113.916985 234.598105,112.965817 234.162778,112.278338 C232.509119,109.663411 244,106 244,106 C243.857429,107.447003 243.812513,108.903196 243.865603,110.357167 L243.865603,110.357167 Z" id="Path" fill="#000000" opacity="0.100000001"></path>
                <path d="M246,103.500036 C246,109.299006 241.298933,114 235.499964,114 C229.700994,114 225,109.299006 225,103.500036 C225,97.7010668 229.700994,93 235.499964,93 C238.287906,92.9896597 240.964667,94.0925584 242.936055,96.0639453 C244.907442,98.0353323 246.010339,100.712094 246,103.500036 L246,103.500036 Z" id="Path" fill="#CF9CAC"></path>
                <path d="M251,127.011935 L251.187715,134 C251.187715,134 253.912197,131.487639 253.998233,129.100597 C254.084269,126.713555 251,127.011935 251,127.011935 Z" id="Path" fill="#000000" opacity="0.100000001"></path>
                <path d="M226,135 C226,135 234.284288,145.815094 239.104237,146.91236 C243.924187,148.009626 227.807481,138.506669 226,135 Z" id="Path" fill="#000000" opacity="0.100000001"></path>
                <path d="M235,135 C235,135 239.657805,140.334702 243,141 L235,135 Z" id="Path" fill="#000000" opacity="0.100000001"></path>
                <path d="M219,148 C219,148 227.272727,156.484744 232,157 L219,148 Z" id="Path" fill="#000000" opacity="0.100000001"></path>
                <path d="M246,103.596013 C246.001442,106.365554 244.916758,109.024706 242.979865,111 L241.820133,110.276552 C241.371499,110.042478 240.984455,109.705381 240.690603,109.292785 C240.307046,108.651065 240.418791,107.84589 240.448992,107.098226 C240.512415,105.515116 240.077516,103.801847 238.842281,102.812026 C236.839932,101.2047 233.62953,102.094632 231.593959,100.517577 C231.103776,100.100385 230.672025,99.6187831 230.310403,99.0858164 L228.401678,96.5219663 C228.286913,96.3706175 228.147987,96.2192685 228,96.0406769 C231.038633,93.0458857 235.574386,92.1728447 239.5037,93.8264463 C243.433014,95.480048 245.987271,99.3368298 245.981878,103.608121 L246,103.596013 Z" id="Path" fill="#000000" opacity="0.100000001"></path>
                <path d="M229.044829,90.7324362 C229.962204,90.0264713 231.081811,89.6542889 232.113491,89.1344151 C233.145171,88.6145414 234.056684,87.9528838 235.088364,87.5098096 C236.120044,87.0667353 237.312924,86.8067984 238.382706,87.176027 C240.677607,87.9706068 241.545157,91.202095 243.904538,91.7692299 C244.303142,91.8637524 244.713469,91.8726138 245.115004,91.9346443 C246.66525,92.2308317 248.015126,93.1825961 248.822604,94.5487822 C249.610142,95.9116342 250.015371,97.4645655 249.994967,99.0415553 C250.027585,99.9167825 249.901443,100.790663 249.622742,101.620247 C248.925186,103.549097 247.175433,104.869459 245.994276,106.538371 C244.876181,108.135451 244.282717,110.045464 244.29728,112 L241.436713,110.207027 C241.000699,109.979549 240.624889,109.650422 240.340553,109.247031 C239.968328,108.62082 240.07677,107.835102 240.10608,107.105506 C240.167629,105.560654 239.745579,103.888787 238.549768,102.922886 C236.603644,101.354403 233.488087,102.222828 231.515585,100.683884 C231.039884,100.276774 230.620889,99.8068104 230.269949,99.2867227 L228.417615,96.7848304 C228.01608,96.2413262 227.245251,95.5648991 227.069396,94.9032421 C226.679585,93.4794965 228.013149,91.5329235 229.044829,90.7324362 Z" id="Path" fill="#363636"></path>
                <path d="M242.343497,109.884637 C241.890294,109.657114 241.49967,109.327922 241.204126,108.924451 C240.817227,108.298115 240.929945,107.51224 240.96041,106.782499 C241.024385,105.237339 240.585697,103.565138 239.339699,102.599043 C237.319904,101.030247 234.08153,101.898846 232.028224,100.359595 C231.53377,99.9524037 231.098257,99.4823468 230.733483,98.9621551 L228.808128,96.4597639 C228.387718,95.9161507 227.589549,95.2395891 227.406762,94.5777997 C227.074699,93.4373945 227.915519,91.9513224 228.814221,91 C227.805847,91.9040518 226.699986,93.6205684 227.074699,94.8998311 C227.269672,95.5616208 228.058702,96.2381824 228.476065,96.781795 L230.401421,99.2841868 C230.766195,99.8043779 231.201707,100.274435 231.696161,100.681626 C233.740328,102.220878 236.978702,101.352279 239.007636,102.921075 C240.250588,103.88717 240.689276,105.55937 240.625301,107.10453 C240.594836,107.834272 240.482117,108.620146 240.869016,109.246483 C241.164561,109.649954 241.555185,109.979146 242.008387,110.206669 L244.981721,112 C244.981721,111.828644 244.981721,111.657288 245,111.488886 L242.343497,109.884637 Z" id="Path" fill="#000000" opacity="0.100000001"></path>
                <path d="M202.301402,233 C202.301402,233 199.503174,233.581969 200.077759,241.354158 C200.652343,249.126348 201.514221,250.473605 202.66339,250.56963 C203.81256,250.665655 209.414762,252.074019 209.127469,249.210734 C208.840177,246.347448 208.552884,239.998171 208.934983,239.026284 C209.317082,238.054397 210.833986,235.444268 209.386032,234.812832 L208.216752,236.360868 C208.216752,236.360868 205.151342,233.497583 203.332781,235.58394 C203.332781,235.58394 201.63201,233.677993 202.301402,233 Z" id="Path" fill="#363636"></path>
                <path d="M204,238 C204.674984,238.208214 205.305182,238.462236 205.976967,238.67045 C206.638535,238.895937 207.376842,239.009091 208.123481,238.999429 C208.440461,238.995564 208.747375,238.926304 209,238.801626" id="Path" fill="#000000" opacity="0.100000001"></path>
                <path d="M223,246 C223.351865,246.228558 223.624912,246.520715 224.021816,246.709524 C224.584799,246.975843 225.305419,246.991743 225.992259,246.997705 C226.106581,247.005006 226.22179,246.994838 226.330049,246.967893 C226.452731,246.920786 226.55639,246.852386 226.631246,246.769147 L227,246.433266" id="Path" fill="#000000" opacity="0.100000001"></path>
                <path d="M174.157879,113.994739 C174.157879,113.994739 172.789104,101.3886 178.112121,104.491377 C183.435138,107.594153 179.769861,113.108231 179.769861,113.108231 L178.519712,117 L174.157879,113.994739 Z" id="Path" fill="#FFB9AB"></path>
                <path d="M182,73.3798326 L185.018345,70.5381024 C185.018345,70.5381024 190.804513,54.572904 196.53937,58.6734453 C202.274225,62.7739867 189.271194,73.14254 189.271194,73.14254 L185.824244,77 L182,73.3798326 Z" id="Path" fill="#FFB9AB"></path>
                <path d="M139.15145,138.576678 L139,141.921951 C139,141.921951 141.777587,146.646078 142.937692,146.99153 C144.097797,147.336982 143.99784,137 143.99784,137 L139.15145,138.576678 Z" id="Path" fill="#E1A400"></path>
                <polygon id="Path" fill="#FFC1C7" points="144 135 144.201823 147 158 147 156.961205 140.008621"></polygon>
                <path d="M147.503474,166 L148.135749,169.928164 L156.052297,187.709518 C156.052297,187.709518 159.6449,193.308551 156.731191,198.023526 C153.817482,202.738503 150.80762,210.105654 150.321031,214.573093 C149.834441,219.040531 146,223.41367 146,223.41367 L154.353604,227 C154.353604,227 154.936347,219.977633 157.267314,216.685992 C159.598281,213.394346 167.074859,198.907584 167.074859,198.907584 C167.074859,198.907584 169.45536,196.74459 168.92215,190.311594 C168.388942,183.878598 168.435561,179.358116 168.435561,179.358116 L167.610982,169.094203 L147.503474,166 Z" id="Path" fill="#575988"></path>
                <path d="M147.503474,166 L148.135749,169.928164 L156.052297,187.709518 C156.052297,187.709518 159.6449,193.308551 156.731191,198.023526 C153.817482,202.738503 150.80762,210.105654 150.321031,214.573093 C149.834441,219.040531 146,223.41367 146,223.41367 L154.353604,227 C154.353604,227 154.936347,219.977633 157.267314,216.685992 C159.598281,213.394346 167.074859,198.907584 167.074859,198.907584 C167.074859,198.907584 169.45536,196.74459 168.92215,190.311594 C168.388942,183.878598 168.435561,179.358116 168.435561,179.358116 L167.610982,169.094203 L147.503474,166 Z" id="Path" fill="#D82D9D" opacity="0.70191592"></path>
                <path d="M145.67465,223 C145.67465,223 136.603246,225.736268 139.611273,230.235127 C142.619299,234.733986 152.379858,243.285923 156.322531,242.992647 C160.265204,242.699371 158.688727,239.813532 158.688727,239.813532 L155.384926,236.587493 C155.384926,236.587493 154.793377,229.745356 155.041827,227.742278 C155.290278,225.739201 152.23197,224.809515 151.835633,225.98262 C151.439294,227.155726 145.67465,223 145.67465,223 Z" id="Path" fill="#363636"></path>
                <path d="M151.777315,142 L144.56574,142.798897 C143.229796,142.946597 142.229407,144.093964 142.263731,145.439118 C142.340861,148.325838 142.391291,152.917267 141.987846,153.754773 C141.394545,154.993211 139.567178,163.804837 147.475882,169.792109 L158.205734,173.207468 L141,174.445905 L141.545837,184 L144.215692,182.515061 L176.847256,184 C176.847256,184 186.093852,183.058548 179.813761,173.011455 C173.533669,162.964362 160.18736,153.113279 160.18736,153.113279 L160.039034,145.290624 L159.048221,143.015698 L151.777315,142 Z" id="Path" fill="#D82D9D"></path>
                <path d="M161,173 C163.23162,171.666667 165.768379,171.666667 168,173 L161,173 Z" id="Path" fill="#000000" opacity="0.100000001"></path>
                <path d="M141.419784,174.5663 C141.419784,174.5663 131.050366,173.002377 131.001167,175.072453 C130.951968,177.142529 132.448197,197.297735 137.417298,195.933849 C142.3864,194.569962 140.26216,187.902074 140.26216,187.902074 L143.978133,184.165027 C143.978133,184.165027 144.363042,182.094951 141.903091,182.294987 L141.419784,174.5663 Z" id="Path" fill="#363636"></path>
                <path d="M159.05044,118.064864 L163.198188,122.888712 C163.198188,122.888712 165.005505,125.176834 167.152609,121.695429 C169.299713,118.214024 173.30393,112 173.30393,112 C173.30393,112 177.747528,115.976617 178.919208,115.183084 C180.090888,114.38955 168.130962,131.742877 168.130962,131.742877 C168.130962,131.742877 164.323001,137.458704 158.657928,130.698753 L157,129.902237 L159.05044,118.064864 Z" id="Path" fill="#E1A400"></path>
                <ellipse id="Oval" fill="#FFB9AB" cx="147" cy="90.5" rx="9" ry="8.5"></ellipse>
                <path d="M146.294744,95.5309985 C146.294744,95.5309985 138.8076,99.0805842 139.693653,105.29236 C140.579705,111.504139 140.727381,119.342806 140.727381,119.342806 C140.727381,119.342806 144.126869,124.37139 139.619815,133.984852 C139.619815,133.984852 136.740144,138.86553 138.659925,142.415116 C138.659925,142.415116 140.789404,136.794937 146.294744,140.936123 C151.800084,145.077308 160.663563,147 160.663563,147 C160.663563,147 156.085626,126.885677 158.891458,124.075587 C158.891458,124.075587 163.764749,116.828515 159.334485,112.243635 C154.904222,107.658753 157.119354,103.369669 157.119354,103.369669 L171.346406,95.7291843 C171.346406,95.7291843 174.34717,95.7765115 178.384616,89.4671224 C180.998434,85.4350962 183.876555,81.5812425 187,77.9309667 C187,77.9309667 183.946072,73.3460847 181.092984,73 C181.092984,73 179.958834,74.1831954 179.173203,77.3896551 C178.753804,79.0904983 175.903668,81.9331256 173.325257,84.2255666 C171.494079,85.8524606 169.727882,87.5414722 167.964637,89.2541474 C166.659187,90.5112921 163.752935,92.3097486 157.414704,93.3272983 C146.982911,94.9926452 146.294744,95.5309985 146.294744,95.5309985 Z" id="Path" fill="#000000" opacity="0.100000001"></path>
                <path d="M146.294744,95.5309985 C146.294744,95.5309985 138.8076,99.0805842 139.693653,105.29236 C140.579705,111.504139 140.727381,119.342806 140.727381,119.342806 C140.727381,119.342806 144.126869,124.37139 139.619815,133.984852 C139.619815,133.984852 136.740144,138.86553 138.659925,142.415116 C138.659925,142.415116 140.789404,136.794937 146.294744,140.936123 C151.800084,145.077308 160.663563,147 160.663563,147 C160.663563,147 156.085626,126.885677 158.891458,124.075587 C158.891458,124.075587 163.764749,116.828515 159.334485,112.243635 C154.904222,107.658753 157.119354,103.369669 157.119354,103.369669 L171.346406,95.7291843 C171.346406,95.7291843 174.34717,95.7765115 178.384616,89.4671224 C180.998434,85.4350962 183.876555,81.5812425 187,77.9309667 C187,77.9309667 183.946072,73.3460847 181.092984,73 C181.092984,73 179.958834,74.1831954 179.173203,77.3896551 C178.753804,79.0904983 175.903668,81.9331256 173.325257,84.2255666 C171.494079,85.8524606 169.727882,87.5414722 167.964637,89.2541474 C166.659187,90.5112921 163.752935,92.3097486 157.414704,93.3272983 C146.982911,94.9926452 146.294744,95.5309985 146.294744,95.5309985 Z" id="Path" fill="#FFD053"></path>
                <path d="M153,132 C153,132 158.851183,140.529412 159,142 C159.002969,142 158.110113,132.832353 153,132 Z" id="Path" fill="#000000" opacity="0.100000001"></path>
                <path d="M145,104 C145,104 149.090095,108.027638 155,104.651745 C151.698952,105.568875 148.081984,105.333141 145,104 L145,104 Z" id="Path" fill="#000000" opacity="0.100000001"></path>
                <path d="M147.980682,81.8229336 C147.874028,81.3775677 147.653095,80.9678157 147.339749,80.6342319 C145.998542,78.9492468 144.541613,77.2196856 142.544638,76.4202836 C139.823761,75.4022214 136.758017,76.2767183 134.981058,78.5777775 C134.262979,79.5465695 133.835692,80.6996103 133.215531,81.7367528 C132.070164,83.656506 130.298702,85.1364401 128.393713,86.3073114 C127.245378,87.0116176 126.034731,87.620827 124.951677,88.4202291 C121.014105,91.3236342 119.195167,96.6906231 120.186236,101.495949 C120.622425,103.599951 121.545247,105.674238 121.295996,107.810928 C121.103123,109.469169 120.221844,110.955045 119.328694,112.363657 C118.435545,113.77227 117.483051,115.198712 117.126978,116.821289 C116.770905,118.443867 117.144781,120.366592 118.488956,121.350243 C118.984491,121.712798 119.580912,121.944596 120.005232,122.378472 C120.286037,122.716209 120.520547,123.08999 120.702542,123.489906 C122.131046,126.129252 124.580895,128.063719 127.476826,128.839066 C128.752753,129.174872 130.46487,129.053034 130.930731,127.816782 C130.984221,127.598483 131.064974,127.387809 131.17108,127.18974 C131.592433,126.595391 132.52119,126.928228 133.173989,127.26998 C134.660088,128.048015 136.288315,128.516091 137.9602,128.645903 C138.623303,128.733481 139.29775,128.652751 139.921567,128.411132 C140.448263,128.143267 140.901572,127.750487 141.242004,127.267007 C142.80279,125.231356 143.250849,122.571635 143.517903,120.018898 C143.692972,118.357685 143.814631,116.666758 143.497131,115.026351 C142.992695,112.393374 141.393336,109.932762 141.630717,107.264126 C141.882935,104.411242 144.19444,102.078414 144.547546,99.2403888 C144.727036,97.7544824 144.356496,96.254223 143.506033,95.023468 C143.192216,94.6434111 142.926141,94.2262306 142.713773,93.7812742 C142.506543,93.3208101 142.6006,92.7803399 142.951154,92.4172392 C143.139049,92.2846635 143.347615,92.1842405 143.568347,92.1200645 C145.476303,91.3860412 146.494078,89.472231 146.630572,87.5138443 C146.683983,86.7709053 146.630572,86.0874015 146.835313,85.3622938 C147.161714,84.241942 148.149815,83.0175794 147.980682,81.8229336 Z" id="Path" fill="#D95D5D"></path>
                <path d="M137,187 C138.011451,187.870627 139.565111,188.208939 141,187.871007" id="Path" fill="#000000" opacity="0.100000001"></path>
                <path d="M156,237 C155.439351,237.828611 154.708356,238.16589 154,237.922795" id="Path" fill="#363636" opacity="0.100000001"></path>
                <ellipse id="Oval" fill="#2F8BE4" cx="298.5" cy="260" rx="10.5" ry="2"></ellipse>
                <ellipse id="Oval" fill="#2F8BE4" cx="309.5" cy="241.5" rx="15.5" ry="2.5"></ellipse>
                <ellipse id="Oval" fill="#9DCCFA" opacity="0.103822544" cx="165" cy="268" rx="27" ry="5"></ellipse>
                <path d="M316.458741,237.994345 C317.172384,237.509768 317.692939,236.856778 317.951888,236.121322 C318.14242,235.377288 317.761356,234.487683 316.909796,234.215949 C315.953248,233.911866 314.930597,234.461803 314.156805,235.021446 C313.383012,235.581089 312.492567,236.211899 311.477694,236.095442 C312.539406,235.29564 313.017829,234.090522 312.737537,232.921978 C312.69348,232.683926 312.57252,232.460302 312.387581,232.274992 C311.854869,231.802693 310.894433,232.006493 310.256735,232.37851 C308.234764,233.562493 307.670945,235.846353 307.65928,237.903767 C307.457083,237.162968 307.628172,236.389821 307.624284,235.639317 C307.620396,234.888814 307.36765,234.021853 306.597745,233.623957 C306.121707,233.405901 305.58576,233.294432 305.042383,233.300464 C304.132496,233.274585 303.121511,233.348988 302.499366,233.902161 C301.721685,234.591201 301.927771,235.742835 302.600465,236.490103 C303.273159,237.237371 304.291921,237.719376 305.229027,238.243434 C305.983195,238.616445 306.626494,239.126201 307.111015,239.734736 C307.166971,239.819557 307.213814,239.908323 307.250997,240 L312.947511,240 C314.221132,239.466026 315.40222,238.791375 316.458741,237.994345 Z" id="Path" fill="#2DD8CF"></path>
                <path d="M305.462378,255.98225 C306.174937,255.498471 306.694171,254.846744 306.951611,254.113006 C307.142139,253.370474 306.76497,252.498805 305.909536,252.211478 C304.953005,251.908008 303.930372,252.456836 303.156593,253.015349 C302.382813,253.573863 301.492385,254.203401 300.477529,254.087178 C301.539222,253.28899 302.017637,252.086304 301.73735,250.920117 C301.695431,250.682024 301.574224,250.45839 301.3874,250.274437 C300.858585,249.803091 299.894278,250.00648 299.260479,250.377746 C297.238544,251.559341 296.674735,253.838592 296.66307,255.891854 C296.456988,255.152551 296.628075,254.380963 296.624186,253.631974 C296.620298,252.882985 296.367556,252.017774 295.597665,251.62068 C295.120252,251.407698 294.584102,251.301974 294.04233,251.313982 C293.132459,251.288155 292.121491,251.362408 291.499357,251.914465 C290.72169,252.602114 290.927772,253.751425 291.600454,254.497185 C292.273137,255.242946 293.291881,255.723978 294.232859,256.246978 C294.985603,256.619624 295.627526,257.128323 296.110926,257.735271 C296.166881,257.819921 296.213723,257.908508 296.250906,258 L301.94732,258 C303.222759,257.46144 304.405064,256.782761 305.462378,255.98225 Z" id="Path" fill="#2DD8CF"></path>
                <path d="M91.1713479,229 C91.1713479,229 83.1139765,202.68761 92.685331,183.324207 C96.7610576,175.223509 97.9926577,166.069457 96.1950186,157.237936 C95.3080674,153.054363 94.0238273,148.957879 92.3584483,145" id="Path" stroke="#535461" stroke-width="2" stroke-linecap="round"></path>
                <path d="M98.9973925,133.151266 C98.9973925,136.447981 93.4974033,146 93.4974033,146 C93.4974033,146 88.0026074,136.447981 88.0026074,133.151266 C87.9409943,130.976427 88.9751072,128.937562 90.7013594,127.830383 C92.4276115,126.723206 94.5723882,126.723206 96.2986408,127.830383 C98.0248927,128.937562 99.059006,130.976427 98.9973925,133.151266 L98.9973925,133.151266 Z" id="Path" fill="#F5A623"></path>
                <path d="M110.118489,150.284667 C108.307549,153.110162 98,158 98,158 C98,158 98.1879277,146.467364 99.9988672,143.647635 C101.849188,140.922413 105.505794,140.183921 108.247082,141.981816 C110.988371,143.779711 111.818005,147.460538 110.118489,150.284667 L110.118489,150.284667 Z" id="Path" fill="#F5A623"></path>
                <path d="M107.924627,179.26202 C105.032205,180.623072 94,179.684771 94,179.684771 C94,179.684771 99.7460557,170.874022 102.638478,169.518126 C105.512903,168.263317 108.938661,169.363369 110.369391,172.000614 C111.80012,174.63786 110.716784,177.855568 107.924627,179.26202 Z" id="Path" fill="#F5A623"></path>
                <path d="M103.978177,203.275879 C101.501627,205.166419 91,206 91,206 C91,206 94.8676336,195.866272 97.323107,193.970284 C99.7981749,192.263215 103.133251,192.864171 104.903928,195.336289 C106.674604,197.808408 106.258061,201.282146 103.9571,203.232293 L103.978177,203.275879 Z" id="Path" fill="#F5A623"></path>
                <path d="M83.7036811,160.269385 C86.0570119,162.591894 97,165 97,165 C97,165 94.3216856,153.923855 91.9571484,151.601346 C89.5918952,149.379193 85.9185205,149.482069 83.6767548,151.833246 C81.4349893,154.184423 81.4419629,157.92689 83.6924747,160.269385 L83.7036811,160.269385 Z" id="Path" fill="#F5A623"></path>
                <path d="M92.6260071,185.570929 C92.6260071,185.570929 86.8824633,176.620812 83.9913062,175.243468 C81.111334,173.939449 77.6572908,175.053361 76.2202321,177.749602 C74.7831736,180.445842 75.8911478,183.733675 78.7130062,185.146728 C81.6041631,186.524072 92.6260071,185.570929 92.6260071,185.570929 Z" id="Path" fill="#F5A623" transform="translate(84.108765, 180.295265) rotate(26.000000) translate(-84.108765, -180.295265) "></path>
                <path d="M77.0218228,213.274737 C79.498373,215.17152 90,216 90,216 C90,216 86.1323664,205.862023 83.6768934,203.970691 C81.2018251,202.262906 77.8667488,202.864114 76.0960725,205.337269 C74.3253964,207.810424 74.7419399,211.285618 77.0428998,213.236584 L77.0218228,213.274737 Z" id="Path" fill="#F5A623"></path>
                <path d="M78,227.421919 C78,227.421919 85.1314917,225.909447 87.0362791,223.8943 C88.9410673,221.879154 97.4938557,218.355984 98.4441645,220.873805 C99.394475,223.391626 111.281683,231.954886 103.199883,233.467358 C95.1180804,234.97983 84.181182,235.482504 81.8054071,234.477155 C79.4296327,233.471807 78,227.421919 78,227.421919 Z" id="Path" fill="#363636"></path>
                <path d="M278.700706,98.175 C278.487688,97.8667605 278.370672,97.501083 278.364706,97.1249999 C278.364706,94.8475 282.955059,93 288.617648,93 C294.280235,93 298.870588,94.8475 298.870588,97.1249999 C298.859432,97.5523342 298.710168,97.9641903 298.445646,98.2975 C304.750587,99.0074999 309,100.3425 309,101.875 C309,104.1525 299.59694,106 288,106 C276.403059,106 267,104.1525 267,101.875 C267,100.26 271.768235,98.8499998 278.700706,98.175 Z" id="Path" fill="#FFFFFF" opacity="0.315150678"></path>
                <path d="M238.472636,42.3797736 C238.301043,42.1181403 238.206373,41.8087024 238.200519,41.4903347 C238.200519,39.5610561 241.91701,38 246.498882,38 C251.080755,38 254.799698,39.5558699 254.799698,41.4903347 C254.791435,41.8510287 254.671751,42.1989414 254.458938,42.4809051 C259.56053,43.0851014 263,44.2131071 263,45.509665 C263,47.4363508 255.400317,49 246.001226,49 C236.602134,49 229,47.4441301 229,45.509665 C229,44.1353135 232.861129,42.9502592 238.472636,42.3797736 Z" id="Path" fill="#A0D0FF" opacity="0.315150678"></path>
                <path d="M113.636688,56.5625616 C113.362386,56.3176947 113.16971,55.9976576 113.083732,55.6440968 C112.590021,53.492954 116.67301,50.7738132 122.195165,49.5701402 C127.71732,48.3664672 132.592714,49.1302437 133.081489,51.2813862 C133.162584,51.6866584 133.106242,52.1067752 132.921032,52.4778081 C139.220782,51.8082952 143.651836,52.1635962 143.980154,53.6089707 C144.473866,55.7576964 135.695687,59.5016512 124.384772,61.9670054 C113.073858,64.4323596 103.508211,64.6933975 103.019438,62.5422552 C102.671372,61.0122847 107.028369,58.6774495 113.636688,56.5625616 Z" id="Path" fill="#FFFFFF" opacity="0.315150678"></path>
            </g>
        </g>
    </g>
</svg>